<svg width="14" height="14" viewBox="0 0 14 14" fill="none" xmlns="http://www.w3.org/2000/svg">
    <path
        d="M11.6666 6.3336C11.6666 7.38852 11.3537 8.41975 10.7677 9.29687C10.1816 10.174 9.34862 10.8576 8.37405 11.2613C7.39947 11.6649 6.32709 11.7705 5.29251 11.5647C4.25794 11.3588 3.30764 10.8507 2.5618 10.1047C1.81596 9.35874 1.30808 8.40831 1.10238 7.37364C0.896687 6.33897 1.00242 5.26654 1.4062 4.29197C1.80999 3.31739 2.49369 2.48445 3.37085 1.89848C4.24801 1.31252 5.27922 0.999842 6.33408 1C7.74841 1.00021 9.10475 1.56224 10.1048 2.56246C11.1048 3.56268 11.6666 4.91918 11.6666 6.3336Z"
        stroke="currentColor" stroke-width="2" stroke-linecap="round" stroke-linejoin="round" />
    <path d="M13 13L10.1002 10.1" stroke="currentColor" stroke-width="2" stroke-linecap="round" stroke-linejoin="round" />
</svg>